<?xml version="1.0" encoding="utf-8"?>
<!-- Generator: Adobe Illustrator 27.5.0, SVG Export Plug-In . SVG Version: 6.00 Build 0)  -->
<svg version="1.1" xmlns="http://www.w3.org/2000/svg" xmlns:xlink="http://www.w3.org/1999/xlink" x="0px" y="0px"
	 viewBox="0 0 315.636 400" style="enable-background:new 0 0 315.636 400;" xml:space="preserve">
<g id="Layer_1">
</g>
<g id="Layer_2">
	<g>
		<g>
			<path style="fill:#F4E9D3;" d="M100.341,220.699c0,0-4.118-5.154-3.15-10.761c0.968-5.607,34.614-10.517,61.531-10.517
				s52.999,4.167,59.35,10.517c0,0,5.941,12.398-47.529,38.588v93.846h-20.188v-93.3
				C150.356,249.071,116.164,239.614,100.341,220.699z"/>
			<path style="fill:#F4E9D3;" d="M198.191,222.257c0,5.095-19.003,14.309-42.141,14.309c-23.137,0-41.646-9.214-41.646-14.309
				s18.756-9.226,41.893-9.226C179.435,213.031,198.191,217.161,198.191,222.257z"/>
			<g>
				<path style="fill:#FED09E;" d="M120.632,192.265v31.178c0,0,32.286,19.74,72.504,0v-31.301L120.632,192.265z"/>
				<path style="opacity:0.5;fill:#FED09E;" d="M120.632,192.265v31.178c0,0,32.286,19.74,72.504,0v-31.301L120.632,192.265z"/>
			</g>
			<path style="fill:#ABBCC7;" d="M218.073,209.938c0,0,4.137,8.549-51.847,36.679c0,0-9.377,59.018-8.549,93.491h-0.088
				c0.827-34.473-8.549-93.491-8.549-93.491c-55.984-28.13-51.847-36.679-51.847-36.679s-5.045,8.791,3.821,19.768
				c8.866,10.977,29.976,138.059,27.021,155.791c0,0,23.01,10.133,62.274,0c0,0,7.6-131.515,24.91-157.269
				C215.217,228.228,222.828,220.357,218.073,209.938z"/>
			<g>
				<g>
					<path style="fill:#006260;" d="M99.916,227.903c0,0,6.478,12.829,40.604,29.842c0,0,16.493,74.896,8.549,131.894
						c0,0-106.615-12.517-137.609-65.082c0,0,4.959-23.307,12.645-32.729c2.27-2.783,6.883-3.787,10.158-4.654
						c5.938-1.571,12.036-2.544,18.104-3.452c13.012-1.945,26.173-3.101,39.105-5.548c3.992-0.755,9.596-1.329,11.905-5.052
						c7.654-12.346,1.843-30.168-2.531-42.633C100.551,229.645,100.319,228.7,99.916,227.903z"/>
					<path style="opacity:0.5;fill:#006260;" d="M70.493,350.951c-15.175-22.891-34.465-42.439-13.632-48.869
						c18.41-5.682,46.454-14.981,47.762-31.265c-0.368,0.787-0.781,1.556-1.245,2.305c-2.309,3.724-7.913,4.297-11.905,5.052
						c-12.933,2.447-26.093,3.603-39.105,5.548c-6.068,0.907-12.166,1.881-18.104,3.452c-3.275,0.866-7.888,1.871-10.158,4.654
						c-2.637,3.232-4.952,8.098-6.857,13.097c5.924,1.914,24.707,5.572,43.993,60.023c13.646,6.423,28.013,11.314,41.086,14.98
						C92.195,373.604,78.924,363.668,70.493,350.951z"/>
					<path style="fill:#F7D3AE;" d="M144.488,300.663c0,0-4.324-30.009-8.125-38.919c0,0-21.22-9.343-32.916-23.468
						c0.948,3.068,1.827,6.287,2.486,9.551c4.833,4.176,13.748,10.888,25.319,15.227l6.159,30.533c0,0-20.964-7.147-31.776-25.302
						c-0.564,1.683-1.307,3.302-2.258,4.837c-0.131,0.212-0.276,0.41-0.427,0.602C106.041,278.741,117.417,294.031,144.488,300.663z
						"/>
				</g>
				<g>
					<g>
						<g>
							<path style="fill:#FCAF17;" d="M114.606,321.469h13.155c0.555,0,1.005,0.45,1.005,1.005l0,0c0,0.555-0.45,1.005-1.005,1.005
								h-13.155V321.469z"/>
							<rect x="114.606" y="321.469" style="fill:#FCAF17;" width="3.598" height="2.011"/>
						</g>
						<path style="fill:#FCAF17;" d="M116.095,319.909c-0.303-0.303-1.497-0.423-1.949-0.55c-0.759-0.212-1.519-0.422-2.278-0.633
							c-2.196-0.61-4.461-1.248-6.664-1.933c-2.067-0.643-4.378-1.87-6.571-1.87c-4.17,0-7.551,3.381-7.551,7.551
							c0,4.17,3.381,7.551,7.551,7.551c1.249,0,2.361-0.476,3.528-0.857c2.873-0.937,5.817-1.562,8.74-2.315
							c1.729-0.447,3.459-0.894,5.194-1.343V319.909z"/>
						<path style="fill:#FCAF17;" d="M98.633,327.514c-2.779,0-5.041-2.261-5.041-5.04c0-2.78,2.261-5.041,5.041-5.041
							c2.78,0,5.041,2.261,5.041,5.041C103.674,325.253,101.413,327.514,98.633,327.514z M98.633,318.227
							c-2.342,0-4.247,1.905-4.247,4.247c0,2.342,1.905,4.247,4.247,4.247s4.247-1.905,4.247-4.247
							C102.881,320.132,100.975,318.227,98.633,318.227z"/>
					</g>
					<g>
						<g>
							<path style="fill:#FCAF17;" d="M114.606,355.57h13.155c0.555,0,1.005,0.45,1.005,1.005l0,0c0,0.555-0.45,1.005-1.005,1.005
								h-13.155V355.57z"/>
							<rect x="114.606" y="355.57" style="fill:#FCAF17;" width="3.598" height="2.011"/>
						</g>
						<path style="fill:#FCAF17;" d="M116.095,354.011c-0.303-0.303-1.497-0.424-1.949-0.55c-0.759-0.212-1.519-0.422-2.278-0.633
							c-2.196-0.61-4.461-1.248-6.664-1.933c-2.067-0.643-4.378-1.87-6.571-1.87c-4.17,0-7.551,3.381-7.551,7.551
							c0,4.17,3.381,7.551,7.551,7.551c1.249,0,2.361-0.476,3.528-0.857c2.873-0.938,5.817-1.562,8.74-2.315
							c1.729-0.447,3.459-0.894,5.194-1.343V354.011z"/>
						<path style="fill:#FCAF17;" d="M98.633,361.616c-2.779,0-5.041-2.261-5.041-5.04c0-2.78,2.261-5.041,5.041-5.041
							c2.78,0,5.041,2.261,5.041,5.041C103.674,359.355,101.413,361.616,98.633,361.616z M98.633,352.328
							c-2.342,0-4.247,1.905-4.247,4.247c0,2.342,1.905,4.247,4.247,4.247s4.247-1.905,4.247-4.247
							C102.881,354.234,100.975,352.328,98.633,352.328z"/>
					</g>
				</g>
				<g>
					<g>
						<path style="fill:#F7D3AE;" d="M104.722,266.704c0,0-48.981-3.395-96.831,17.297v12.609c0,0,7.921,11.154,27.805,7.598
							s40.252-18.429,68.38-25.703C104.076,278.505,107.309,273.009,104.722,266.704z"/>
						<path style="opacity:0.5;fill:#F7D3AE;" d="M104.722,266.704c0,0-39.015-2.702-81.421,11.426
							c0.908,0.568,1.861,1.049,2.775,1.445c4.612,1.999,9.575,3.144,14.547,3.793c5.081,0.663,10.22,0.819,15.339,0.694
							c5.349-0.131,10.685-0.546,15.985-1.28c2.971-0.411,5.932-0.888,8.898-1.333c1.454-0.218,2.909-0.428,4.366-0.62
							c0.951-0.125,1.9-0.271,2.862-0.217c0.468,0.026,1.259,0.061,1.515,0.544c0.304,0.574-0.467,1.111-0.857,1.374
							c-1.152,0.779-2.489,1.315-3.748,1.895c-1.336,0.616-2.678,1.221-3.993,1.883c-0.543,0.273-1.081,0.554-1.621,0.833
							c7.608-3.241,15.764-6.322,24.706-8.635C104.076,278.505,107.309,273.009,104.722,266.704z"/>
						<path style="fill:#F7D3AE;" d="M35.429,293.884c23.26-2.469,45.092-14.294,57.566-16.763
							c8.461-1.674,11.538-5.86,11.793-10.244c-0.023-0.058-0.042-0.115-0.066-0.173c0,0-48.981-3.395-96.831,17.297
							C7.891,284.001,12.168,296.353,35.429,293.884z"/>
						<path style="opacity:0.4;fill:#F7D3AE;" d="M35.429,293.884c23.26-2.469,45.092-14.294,57.566-16.763
							c8.461-1.674,11.538-5.86,11.793-10.244c-0.023-0.058-0.042-0.115-0.066-0.173c0,0-48.981-3.395-96.831,17.297
							C7.891,284.001,12.168,296.353,35.429,293.884z"/>
					</g>
					<g>
						<g>
							<path style="fill:#FCAF17;" d="M101.938,269.873c0,0.964-2.626,1.746-5.866,1.746s-5.866-0.781-5.866-1.746
								c0-0.964,2.626-1.745,5.866-1.745S101.938,268.909,101.938,269.873z"/>
							<rect x="90.235" y="266.221" style="fill:#FCAF17;" width="11.673" height="3.651"/>
							<path style="fill:#FCAF17;" d="M101.908,269.697v-3.476H90.235v3.476c-0.019,0.058-0.03,0.116-0.03,0.175
								c0,0.964,2.626,1.746,5.866,1.746c3.24,0,5.866-0.781,5.866-1.746C101.938,269.813,101.928,269.755,101.908,269.697z"/>
							<path style="opacity:0.4;fill:#FCAF17;" d="M93.589,266.221h-3.354v3.476c-0.019,0.058-0.03,0.116-0.03,0.175
								c0,0.7,1.387,1.301,3.384,1.58V266.221z"/>
							<path style="opacity:0.4;fill:#FCAF17;" d="M101.908,269.697v-3.476h-1.063v4.664c0.685-0.286,1.093-0.634,1.093-1.012
								C101.938,269.813,101.928,269.755,101.908,269.697z"/>
						</g>
						<path style="fill:#FCAF17;" d="M101.953,266.221c0,0.964-2.626,1.745-5.866,1.745c-3.24,0-5.866-0.781-5.866-1.745
							c0-0.964,2.626-1.746,5.866-1.746C99.326,264.476,101.953,265.257,101.953,266.221z"/>
						<path style="opacity:0.3;fill:#FCAF17;" d="M101.953,266.221c0,0.964-2.626,1.745-5.866,1.745
							c-3.24,0-5.866-0.781-5.866-1.745c0-0.964,2.626-1.746,5.866-1.746C99.326,264.476,101.953,265.257,101.953,266.221z"/>
					</g>
				</g>
			</g>
			<g>
				<g>
					<path style="fill:#006260;" d="M215.72,227.903c0,0-6.478,12.829-40.604,29.842c0,0-16.493,74.896-8.549,131.894
						c0,0,106.615-12.517,137.609-65.082c0,0-4.959-23.307-12.645-32.729c-2.27-2.783-6.883-3.787-10.158-4.654
						c-5.938-1.571-12.036-2.544-18.104-3.452c-13.012-1.945-26.173-3.101-39.105-5.548c-3.992-0.755-9.596-1.329-11.905-5.052
						c-7.654-12.346-1.843-30.168,2.531-42.633C215.085,229.645,215.318,228.7,215.72,227.903z"/>
					<path style="opacity:0.5;fill:#006260;" d="M245.143,350.951c15.175-22.891,34.465-42.439,13.632-48.869
						c-18.41-5.682-46.454-14.981-47.762-31.265c0.368,0.787,0.781,1.556,1.245,2.305c2.309,3.724,7.913,4.297,11.905,5.052
						c12.933,2.447,26.094,3.603,39.105,5.548c6.068,0.907,12.166,1.881,18.104,3.452c3.275,0.866,7.888,1.871,10.158,4.654
						c2.637,3.232,4.952,8.098,6.857,13.097c-5.924,1.914-24.707,5.572-43.993,60.023c-13.646,6.423-28.013,11.314-41.086,14.98
						C223.441,373.604,236.712,363.668,245.143,350.951z"/>
					<path style="fill:#F7D3AE;" d="M171.148,300.663c0,0,4.324-30.009,8.125-38.919c0,0,21.22-9.343,32.916-23.468
						c-0.949,3.068-1.827,6.287-2.486,9.551c-4.833,4.176-13.748,10.888-25.32,15.227l-6.159,30.533c0,0,20.964-7.147,31.775-25.302
						c0.564,1.683,1.307,3.302,2.258,4.837c0.131,0.212,0.276,0.41,0.427,0.602C209.595,278.741,198.219,294.031,171.148,300.663z"
						/>
				</g>
				<g>
					<g>
						<g>
							<path style="fill:#FCAF17;" d="M201.03,321.469h-13.155c-0.555,0-1.005,0.45-1.005,1.005l0,0c0,0.555,0.45,1.005,1.005,1.005
								h13.155V321.469z"/>
							<rect x="197.432" y="321.469" style="fill:#FCAF17;" width="3.598" height="2.011"/>
						</g>
						<path style="fill:#FCAF17;" d="M199.541,319.909c0.304-0.303,1.497-0.423,1.949-0.55c0.759-0.212,1.519-0.422,2.278-0.633
							c2.196-0.61,4.461-1.248,6.664-1.933c2.067-0.643,4.377-1.87,6.571-1.87c4.17,0,7.551,3.381,7.551,7.551
							c0,4.17-3.381,7.551-7.551,7.551c-1.249,0-2.361-0.476-3.528-0.857c-2.873-0.937-5.816-1.562-8.74-2.315
							c-1.729-0.447-3.459-0.894-5.194-1.343V319.909z"/>
						<path style="fill:#FCAF17;" d="M217.003,327.514c2.779,0,5.041-2.261,5.041-5.04c0-2.78-2.261-5.041-5.041-5.041
							c-2.779,0-5.041,2.261-5.041,5.041C211.962,325.253,214.223,327.514,217.003,327.514z M217.003,318.227
							c2.342,0,4.247,1.905,4.247,4.247c0,2.342-1.905,4.247-4.247,4.247s-4.247-1.905-4.247-4.247
							C212.755,320.132,214.661,318.227,217.003,318.227z"/>
					</g>
					<g>
						<g>
							<path style="fill:#FCAF17;" d="M201.03,355.57h-13.155c-0.555,0-1.005,0.45-1.005,1.005l0,0c0,0.555,0.45,1.005,1.005,1.005
								h13.155V355.57z"/>
							<rect x="197.432" y="355.57" style="fill:#FCAF17;" width="3.598" height="2.011"/>
						</g>
						<path style="fill:#FCAF17;" d="M199.541,354.011c0.304-0.303,1.497-0.424,1.949-0.55c0.759-0.212,1.519-0.422,2.278-0.633
							c2.196-0.61,4.461-1.248,6.664-1.933c2.067-0.643,4.377-1.87,6.571-1.87c4.17,0,7.551,3.381,7.551,7.551
							c0,4.17-3.381,7.551-7.551,7.551c-1.249,0-2.361-0.476-3.528-0.857c-2.873-0.938-5.816-1.562-8.74-2.315
							c-1.729-0.447-3.459-0.894-5.194-1.343V354.011z"/>
						<path style="fill:#FCAF17;" d="M217.003,361.616c2.779,0,5.041-2.261,5.041-5.04c0-2.78-2.261-5.041-5.041-5.041
							c-2.779,0-5.041,2.261-5.041,5.041C211.962,359.355,214.223,361.616,217.003,361.616z M217.003,352.328
							c2.342,0,4.247,1.905,4.247,4.247c0,2.342-1.905,4.247-4.247,4.247s-4.247-1.905-4.247-4.247
							C212.755,354.234,214.661,352.328,217.003,352.328z"/>
					</g>
				</g>
				<g>
					<g>
						<path style="fill:#F7D3AE;" d="M210.914,266.704c0,0,48.982-3.395,96.831,17.297v12.609c0,0-7.921,11.154-27.805,7.598
							s-40.252-18.429-68.38-25.703C211.56,278.505,208.327,273.009,210.914,266.704z"/>
						<path style="opacity:0.5;fill:#F7D3AE;" d="M210.914,266.704c0,0,39.015-2.702,81.421,11.426
							c-0.908,0.568-1.861,1.049-2.775,1.445c-4.612,1.999-9.575,3.144-14.547,3.793c-5.081,0.663-10.22,0.819-15.339,0.694
							c-5.349-0.131-10.685-0.546-15.985-1.28c-2.971-0.411-5.932-0.888-8.898-1.333c-1.454-0.218-2.909-0.428-4.366-0.62
							c-0.951-0.125-1.9-0.271-2.862-0.217c-0.468,0.026-1.259,0.061-1.515,0.544c-0.304,0.574,0.467,1.111,0.857,1.374
							c1.152,0.779,2.489,1.315,3.748,1.895c1.336,0.616,2.678,1.221,3.993,1.883c0.543,0.273,1.082,0.554,1.621,0.833
							c-7.608-3.241-15.764-6.322-24.706-8.635C211.56,278.505,208.327,273.009,210.914,266.704z"/>
						<path style="fill:#F7D3AE;" d="M280.207,293.884c-23.26-2.469-45.092-14.294-57.567-16.763
							c-8.46-1.674-11.538-5.86-11.793-10.244c0.023-0.058,0.042-0.115,0.066-0.173c0,0,48.982-3.395,96.831,17.297
							C307.745,284.001,303.468,296.353,280.207,293.884z"/>
						<path style="opacity:0.4;fill:#F7D3AE;" d="M280.207,293.884c-23.26-2.469-45.092-14.294-57.567-16.763
							c-8.46-1.674-11.538-5.86-11.793-10.244c0.023-0.058,0.042-0.115,0.066-0.173c0,0,48.982-3.395,96.831,17.297
							C307.745,284.001,303.468,296.353,280.207,293.884z"/>
					</g>
					<g>
						<g>
							<path style="fill:#FCAF17;" d="M213.698,269.873c0,0.964,2.626,1.746,5.866,1.746c3.24,0,5.866-0.781,5.866-1.746
								c0-0.964-2.626-1.745-5.866-1.745C216.324,268.127,213.698,268.909,213.698,269.873z"/>
							
								<rect x="213.728" y="266.221" transform="matrix(-1 -1.224647e-16 1.224647e-16 -1 439.1283 536.0939)" style="fill:#FCAF17;" width="11.673" height="3.651"/>
							<path style="fill:#FCAF17;" d="M213.728,269.697v-3.476H225.4v3.476c0.019,0.058,0.03,0.116,0.03,0.175
								c0,0.964-2.626,1.746-5.866,1.746c-3.24,0-5.866-0.781-5.866-1.746C213.698,269.813,213.708,269.755,213.728,269.697z"/>
							<path style="opacity:0.4;fill:#FCAF17;" d="M222.047,266.221h3.354v3.476c0.019,0.058,0.03,0.116,0.03,0.175
								c0,0.7-1.387,1.301-3.384,1.58V266.221z"/>
							<path style="opacity:0.4;fill:#FCAF17;" d="M213.728,269.697v-3.476h1.063v4.664c-0.685-0.286-1.093-0.634-1.093-1.012
								C213.698,269.813,213.708,269.755,213.728,269.697z"/>
						</g>
						<ellipse style="fill:#FCAF17;" cx="219.549" cy="266.221" rx="5.866" ry="1.745"/>
						<ellipse style="opacity:0.3;fill:#FCAF17;" cx="219.549" cy="266.221" rx="5.866" ry="1.745"/>
					</g>
				</g>
			</g>
		</g>
		<g>
			<g>
				<path style="fill:#FED09E;" d="M82.803,157.757c1.109,4.342,3.18,8.399,5.805,12.015c2.423,3.339,5.358,6.417,8.706,8.841
					c2.444,1.77,5.916,3.824,9.025,2.626c1.713-0.66,2.754-2.27,3.421-3.9c0.833-2.035,1.225-4.223,1.247-6.418
					c0.045-4.385-1.218-8.686-2.661-12.785c-1.399-3.973-3.211-8.056-6.426-10.902c-0.023-0.02-0.05-0.032-0.076-0.046
					c-0.595-0.768-1.262-1.481-2.01-2.118c-2.72-2.319-6.249-3.23-9.766-2.656c-3.073,0.502-5.739,2.281-7.031,5.162
					C81.598,150.785,81.957,154.445,82.803,157.757z"/>
				<path style="opacity:0.35;fill:#FED09E;" d="M108.346,158.136c-1.399-3.973-3.211-8.056-6.426-10.902
					c-0.023-0.02-0.05-0.032-0.076-0.046c-0.595-0.768-1.262-1.481-2.01-2.118c-1.377-1.174-2.963-1.986-4.649-2.428
					c0.349,3.333,0.8,6.654,1.37,9.956c1.27,7.354,3.117,14.603,5.515,21.671c0.834,2.46,1.739,4.894,2.697,7.307
					c0.529-0.036,1.056-0.138,1.572-0.337c1.713-0.66,2.754-2.27,3.421-3.9c0.833-2.035,1.225-4.223,1.247-6.418
					C111.052,166.536,109.79,162.236,108.346,158.136z"/>
				<path style="fill:#726658;" d="M84.663,153.215c1.906-3.811,7.337-1.096,9.776,0.625c4.004,2.825,6.732,7.224,8.309,11.793
					c0.943,2.734,1.495,5.594,1.731,8.474c0.018,0.22-0.336,0.15-0.361-0.024c-0.234-1.626-0.54-3.244-0.938-4.836
					c-0.486,0.395-1.354,0.463-1.884,0.413c-0.937-0.09-1.85-0.473-2.663-0.931c-1.561-0.878-3.01-2.064-4.236-3.368
					c-0.107-0.114,0.093-0.16,0.174-0.079c1.162,1.164,2.533,2.182,3.983,2.957c0.748,0.4,1.55,0.779,2.399,0.896
					c0.353,0.049,0.718,0.053,1.065-0.037c0.386-0.101,0.619-0.363,0.963-0.528c0.007-0.003,0.015-0.003,0.022-0.006
					c-0.739-2.746-1.772-5.404-3.236-7.87c-2.105-3.547-5.235-6.836-9.196-8.25c-1.914-0.684-4.188-0.889-5.494,0.979
					C84.95,153.607,84.559,153.423,84.663,153.215z"/>
			</g>
			<g>
				<path style="fill:#FED09E;" d="M231.711,157.757c-1.109,4.342-3.18,8.399-5.805,12.015c-2.423,3.339-5.358,6.417-8.706,8.841
					c-2.444,1.77-5.916,3.824-9.025,2.626c-1.713-0.66-2.754-2.27-3.421-3.9c-0.833-2.035-1.225-4.223-1.247-6.418
					c-0.045-4.385,1.218-8.686,2.661-12.785c1.399-3.973,3.212-8.056,6.426-10.902c0.023-0.02,0.05-0.032,0.076-0.046
					c0.594-0.768,1.262-1.481,2.01-2.118c2.72-2.319,6.249-3.23,9.766-2.656c3.073,0.502,5.739,2.281,7.031,5.162
					C232.915,150.785,232.557,154.445,231.711,157.757z"/>
				<path style="opacity:0.35;fill:#FED09E;" d="M206.167,158.136c1.399-3.973,3.212-8.056,6.426-10.902
					c0.023-0.02,0.05-0.032,0.076-0.046c0.594-0.768,1.262-1.481,2.01-2.118c1.377-1.174,2.963-1.986,4.649-2.428
					c-0.349,3.333-0.8,6.654-1.37,9.956c-1.27,7.354-3.117,14.603-5.515,21.671c-0.835,2.46-1.739,4.894-2.697,7.307
					c-0.529-0.036-1.056-0.138-1.572-0.337c-1.713-0.66-2.754-2.27-3.421-3.9c-0.833-2.035-1.225-4.223-1.247-6.418
					C203.461,166.536,204.724,162.236,206.167,158.136z"/>
				<path style="fill:#726658;" d="M229.851,153.215c-1.906-3.811-7.337-1.096-9.776,0.625c-4.004,2.825-6.732,7.224-8.309,11.793
					c-0.943,2.734-1.495,5.594-1.731,8.474c-0.018,0.22,0.336,0.15,0.361-0.024c0.234-1.626,0.54-3.244,0.938-4.836
					c0.486,0.395,1.354,0.463,1.883,0.413c0.937-0.09,1.85-0.473,2.663-0.931c1.561-0.878,3.01-2.064,4.236-3.368
					c0.107-0.114-0.093-0.16-0.174-0.079c-1.162,1.164-2.533,2.182-3.983,2.957c-0.748,0.4-1.55,0.779-2.399,0.896
					c-0.353,0.049-0.718,0.053-1.065-0.037c-0.386-0.101-0.619-0.363-0.963-0.528c-0.007-0.003-0.015-0.003-0.022-0.006
					c0.739-2.746,1.773-5.404,3.236-7.87c2.105-3.547,5.235-6.836,9.196-8.25c1.914-0.684,4.188-0.889,5.494,0.979
					C229.564,153.607,229.955,153.423,229.851,153.215z"/>
			</g>
			<path style="fill:#FED09E;" d="M214.836,142.132c-0.925,2.535-1.029,5.719-1.525,8.371c-2.4,12.83-4.713,25.919-10.788,37.627
				c-5.206,10.031-13.441,18.731-21.542,26.484c-3.872,3.705-8.011,7.874-12.755,10.476c-6.628,3.635-11.118,1.497-11.118,1.497
				h0.047c0,0-4.49,2.138-11.118-1.497c-6.628-3.635-29.719-25.229-35.706-39.982c-5.986-14.753-10.904-42.975-10.904-42.975
				s-11.501-57.445,0.696-76.692c12.197-19.248,104.623-23.44,117.773,4.574C230.951,97.827,215.067,141.501,214.836,142.132z"/>
			<g>
				<path style="fill:#E58B5A;" d="M157.796,189.828c0,0,0.948,0,2.213-0.632c1.264-0.632,5.611-2.134,15.804,0.316
					c0,0-6.164,8.613-18.017,8.613h0.141c-11.853,0-18.017-8.613-18.017-8.613c10.194-2.45,14.54-0.948,15.804-0.316
					c1.264,0.632,2.213,0.632,2.213,0.632"/>
				<path style="fill:#726658;" d="M140.009,189.335c9.877,4,21.2,4.812,31.406,1.579c1.47-0.43,2.889-1.008,4.313-1.581
					c0.102-0.045,0.223,0.004,0.264,0.107c0.039,0.097-0.004,0.206-0.096,0.252c-1.387,0.69-2.807,1.325-4.271,1.847
					c-7.331,2.655-15.43,2.916-23.006,1.205c-3.03-0.697-6.001-1.648-8.788-3.054c-0.098-0.049-0.137-0.169-0.088-0.266
					C139.793,189.326,139.912,189.288,140.009,189.335L140.009,189.335z"/>
			</g>
			<g>
				<g>
					<path style="opacity:0.3;fill:#FED09E;" d="M167.28,175.759l-3.871,3.871c-3.07,3.07-8.047,3.07-11.117,0l-3.871-3.871
						c-1.374-1.374-1.613-3.516-0.577-5.159l10.006-15.865l10.006,15.865C168.893,172.243,168.654,174.385,167.28,175.759z"/>
					<path style="opacity:0.5;fill:#FED09E;" d="M167.857,170.6l-1.862-2.952c-1.641,2.79-4.673,4.664-8.145,4.664
						s-6.503-1.874-8.145-4.664l-1.862,2.952c-1.036,1.643-0.797,3.785,0.577,5.159l3.871,3.871c3.07,3.07,8.047,3.07,11.117,0
						l3.871-3.871C168.654,174.385,168.893,172.243,167.857,170.6z"/>
				</g>
				<g>
					<path style="fill:#726658;" d="M150.411,174.354c1.868-1.14,4.171-0.304,4.801,1.811c0.179,0.602,0.251,1.22,0.227,1.842
						c-0.004,0.111-0.096,0.197-0.206,0.194c-0.081-0.003-0.149-0.053-0.179-0.123c-0.118-0.281-0.208-0.562-0.295-0.839
						c-0.266-0.7-0.658-1.545-1.21-2.019c-0.801-0.689-1.953-0.707-2.974-0.503C150.353,174.785,150.212,174.471,150.411,174.354
						L150.411,174.354z"/>
					<path style="fill:#726658;" d="M165.29,174.354c-1.868-1.14-4.171-0.304-4.801,1.811c-0.179,0.602-0.251,1.22-0.227,1.842
						c0.003,0.111,0.096,0.197,0.206,0.194c0.081-0.003,0.149-0.053,0.179-0.123c0.118-0.281,0.208-0.562,0.295-0.839
						c0.266-0.7,0.658-1.545,1.21-2.019c0.801-0.689,1.953-0.707,2.974-0.503C165.349,174.785,165.49,174.471,165.29,174.354
						L165.29,174.354z"/>
				</g>
			</g>
			<g>
				<path style="fill:#FFFFFF;" d="M144.855,149.811c0,0-4.432-21.273-28.437-5.983
					C116.418,143.828,124.173,161.038,144.855,149.811z"/>
				<g>
					
						<ellipse transform="matrix(0.2298 -0.9732 0.9732 0.2298 -40.5294 240.8162)" style="fill:#C2AD92;" cx="131.877" cy="146.014" rx="7.432" ry="7.432"/>
					<path style="fill:#231F20;" d="M136.139,146.014c0,2.354-1.908,4.262-4.262,4.262c-2.354,0-4.261-1.908-4.261-4.262
						c0-2.354,1.908-4.261,4.261-4.261C134.231,141.752,136.139,143.66,136.139,146.014z"/>
					<path style="fill:#FFFFFF;" d="M130.714,144.498c0,1.481-1.2,2.681-2.681,2.681s-2.681-1.2-2.681-2.681s1.2-2.681,2.681-2.681
						S130.714,143.017,130.714,144.498z"/>
				</g>
				<path style="fill:#231F20;" d="M144.855,149.811c0,0-1.037-12.342-12.449-12.608c-11.412-0.267-17.224,6.452-17.224,6.452
					l3.36,3.52l-1.173-3.306C117.368,143.868,137.365,130.963,144.855,149.811z"/>
			</g>
			<path style="fill:#C55834;" d="M110.195,134.449c0,0,7.815-4.509,18.861-3.682c11.046,0.827,19.538,3.532,21.943,6.012
				c0,0-2.48-8.041-4.509-10.445c0,0-4.698-2.226-4.509-2.104c0.816,0.527,2.48,1.578,3.457,3.156c0,0-14.202-4.584-20.289-4.584
				C119.062,122.802,112.148,127.536,110.195,134.449z"/>
			<g>
				<path style="fill:#FFFFFF;" d="M170.682,149.811c0,0,4.432-21.273,28.437-5.983C199.12,143.828,191.364,161.038,170.682,149.811
					z"/>
				<g>
					
						<ellipse transform="matrix(0.9239 -0.3827 0.3827 0.9239 -41.8967 81.3981)" style="fill:#C2AD92;" cx="183.66" cy="146.014" rx="7.432" ry="7.432"/>
					<path style="fill:#231F20;" d="M187.921,146.014c0,2.354-1.908,4.262-4.261,4.262c-2.354,0-4.262-1.908-4.262-4.262
						c0-2.354,1.908-4.261,4.262-4.261C186.014,141.752,187.921,143.66,187.921,146.014z"/>
					<path style="fill:#FFFFFF;" d="M182.497,144.498c0,1.481-1.2,2.681-2.681,2.681s-2.681-1.2-2.681-2.681s1.2-2.681,2.681-2.681
						S182.497,143.017,182.497,144.498z"/>
				</g>
				<path style="fill:#231F20;" d="M170.682,149.811c0,0,1.037-12.342,12.449-12.608c11.412-0.267,17.225,6.452,17.225,6.452
					l-3.36,3.52l1.173-3.306C198.17,143.868,178.172,130.963,170.682,149.811z"/>
			</g>
			<path style="fill:#C55834;" d="M205.343,134.449c0,0-7.815-4.509-18.862-3.682s-19.538,3.532-21.943,6.012
				c0,0,2.48-8.041,4.509-10.445c0,0,4.698-2.226,4.509-2.104c-0.816,0.527-2.48,1.578-3.457,3.156c0,0,14.203-4.584,20.289-4.584
				C196.476,122.802,203.389,127.536,205.343,134.449z"/>
			<g>
				<path style="fill:#C55834;" d="M214.684,157.372l-4.419,1.132c0,0,2.882-19.049-1.345-32.062
					c-2.232-6.872-4.088-13.962-4.749-21.163c-0.302-3.29-0.236-6.51,0.154-9.786c0.396-3.318,2.417-5.831,3.132-9.026
					c2.104-9.398-12.095-16.446-19.478-11.512c-9.03,6.035-20.365,10.562-29.971,10.562H157.9c-9.606,0-20.941-4.526-29.971-10.562
					c-7.383-4.934-21.582,2.114-19.478,11.512c0.715,3.195,2.736,5.708,3.132,9.026c0.391,3.276,0.456,6.496,0.154,9.786
					c-0.661,7.201-2.517,14.291-4.749,21.163c-4.227,13.013-1.345,32.062-1.345,32.062l-4.419-1.132
					c0,0-36.367-68.816-18.213-93.989s96.821-47.927,126.11-13.313c0,0,30.444,5.325,26.329,39.455S214.684,157.372,214.684,157.372
					z"/>
				<path style="opacity:0.4;fill:#C55834;" d="M177.632,80.388c-0.101-3.096,0.189-6.202,0.799-9.237
					c0.618-3.077,1.575-6.082,2.834-8.956c1.24-2.83,2.784-5.532,4.637-8.007c1.78-2.377,3.84-4.546,6.193-6.363
					c2.267-1.751,4.8-3.16,7.523-4.063c0.679-0.225,1.368-0.413,2.066-0.571c-33.393-24.278-101.889-3.08-118.672,20.192
					c-18.154,25.174,18.213,93.989,18.213,93.989l4.419,1.132c0,0-2.882-19.049,1.345-32.062c2.232-6.872,4.088-13.962,4.749-21.163
					c0.302-3.291,0.237-6.51-0.154-9.787c-0.396-3.318-2.417-5.831-3.132-9.026c-2.104-9.398,12.095-16.446,19.478-11.512
					c9.03,6.035,20.365,10.562,29.971,10.562h0.109c6.188,0,13.093-1.88,19.637-4.83C177.642,80.586,177.635,80.487,177.632,80.388z
					"/>
				<path style="opacity:0.4;fill:#C55834;" d="M233.374,98.728c-1.841,1.774-4.02,3.193-6.302,4.333
					c-2.494,1.246-5.153,2.179-7.881,2.751c-2.66,0.558-5.417,0.787-8.125,0.484c-2.465-0.276-4.907-1.002-6.997-2.365
					c0.028,0.448,0.061,0.897,0.102,1.348c0.661,7.201,2.517,14.291,4.749,21.163c4.227,13.013,1.345,32.062,1.345,32.062
					l4.419-1.132c0,0,14.039-28.431,19.52-59.504C233.937,98.163,233.662,98.451,233.374,98.728z"/>
				<path style="fill:#C55834;" d="M191.023,73.646c-0.386,1.053-2.12,0.691-3.043,1.307c-9.03,6.035-20.365,10.562-29.971,10.562
					H157.9c-5.243,0-11-1.348-16.617-3.554c0,0-1.416-17.006-17.237-19.71c-15.821-2.704-32.859,15.28-25.692,25.557
					c7.167,10.277,22.717,3.651,20.283-3.516c-2.434-7.167-7.572-3.245-7.167-0.947c0,0-1.599-2.689,2.466-4.137
					c4.065-1.448,7.406,3.508,5.68,9.076c-1.726,5.568-18.933,16.315-33.466,1.169c0,0-8.931-9.193-3.523-26.681
					c0,0-5.769-17.488,9.555-24.159c0,0,3.245-16.046,30.289-10.817c0,0-3.425-7.753,2.524-12.26c0,0-2.344,7.572,4.688,7.212
					c7.031-0.361,31.19-16.587,48.498-11.899c17.308,4.688,25.782,22.717,24.52,30.65c0,0,6.851,1.983,7.212,8.113
					C209.913,49.612,197.553,55.853,191.023,73.646z"/>
				<path style="opacity:0.5;fill:#C55834;" d="M175.749,14.48c16.14,4.613,22.718,23.088,19.914,38.231
					c-0.447,2.415-1.052,4.799-1.756,7.151c-0.65,2.172-1.238,5.916-2.663,7.681c0,0,8.73-10.813,11.631-25.987
					c-0.112-0.038-0.174-0.056-0.174-0.056c1.262-7.933-7.212-25.962-24.519-30.65c-10.677-2.892-23.959,2.175-34.222,6.566
					C153.986,13.882,165.327,11.501,175.749,14.48z"/>
			</g>
		</g>
	</g>
</g>
</svg>
